<svg id="圖層_1" data-name="圖層 1" xmlns="http://www.w3.org/2000/svg" viewBox="0 0 50 50"><defs><style>.cls-1{fill:#b73c5a;stroke:#fff;stroke-miterlimit:10;stroke-width:2px;}.cls-2{fill:#fff;}</style></defs><circle class="cls-1" cx="25" cy="25" r="20.88"/><path class="cls-2" d="M24.45,24.76a.75.75,0,0,0,1.1,0l4.68-4.9a3.56,3.56,0,0,0-.24-5.1,3.27,3.27,0,0,0-4.51.33l-.48.5-.48-.5a3.26,3.26,0,0,0-4.5-.33,3.55,3.55,0,0,0-.24,5.1ZM36.91,28.1a1.42,1.42,0,0,0-1.83,0l-4,3.17a2.73,2.73,0,0,1-1.72.6H24.31a.69.69,0,1,1,0-1.37h3.37a1.44,1.44,0,0,0,1.43-1.14,1.38,1.38,0,0,0-1.36-1.61H20.88a5.09,5.09,0,0,0-3.19,1.13l-2,1.62H13.32a.69.69,0,0,0-.69.69v4.12a.69.69,0,0,0,.69.69H28.64a2.72,2.72,0,0,0,1.72-.61l6.49-5.19A1.37,1.37,0,0,0,36.91,28.1Z"/></svg>