<?xml version="1.0" encoding="utf-8"?>
<!-- Generator: Adobe Illustrator 13.0.0, SVG Export Plug-In . SVG Version: 6.00 Build 14948)  -->
<!DOCTYPE svg PUBLIC "-//W3C//DTD SVG 1.0//EN" "http://www.w3.org/TR/2001/REC-SVG-20010904/DTD/svg10.dtd">
<svg version="1.0" id="圖層_1" xmlns="http://www.w3.org/2000/svg" xmlns:xlink="http://www.w3.org/1999/xlink" x="0px" y="0px"
	 width="605px" height="347px" viewBox="-187 -82 605 347" enable-background="new -187 -82 605 347" xml:space="preserve">
<rect x="-187" y="-82" fill="#F63FFF" width="605" height="347"/>
<g id="layer1">
	<path fill="#FFFFFF" d="M-104.486,119.287c0.376-0.753,0-0.847-1.411-0.377c-3.951,1.223-16.178-4.42-15.331-7.147
		c0.094-0.47-0.282-0.753-0.847-0.565c-1.316,0.282-6.489-6.959-5.831-8.182c0.282-0.376-0.094-1.128-0.753-1.599
		c-0.94-0.565-1.223-2.822-1.223-7.62c0.094-7.995,0.376-9.218,3.574-15.613c2.916-5.832,3.01-7.807,0.564-12.886
		c-1.411-2.916-3.292-4.608-7.994-7.336c-3.386-1.977-6.114-3.668-6.114-3.857c0-0.941,11.945-11.851,12.979-11.851
		c0.752,0,3.198,1.317,5.455,3.01c2.822,1.975,5.173,2.916,7.242,2.822c7.336-0.282,9.97-0.565,8.935-1.223
		c-1.034-0.658,6.866-4.609,9.312-4.609c0.752,0,2.163-0.47,3.104-0.94c9.875-5.267,52.952-5.361,62.827-0.094
		c0.847,0.471,1.881,0.847,2.351,0.847c2.352,0.094,6.302,1.411,6.302,2.163c0,0.47,0.282,0.753,0.752,0.658
		c1.129-0.282,4.891,1.223,4.891,2.069c0,0.377,2.445,0.752,5.361,0.659c4.608,0,5.832-0.376,8.276-2.633
		c1.505-1.506,3.574-2.728,4.421-2.728c1.693,0,12.979,10.252,12.979,11.757c0,0.564-1.317,1.693-2.821,2.539
		c-1.505,0.847-2.728,1.317-2.54,0.94c0.095-0.375-0.188-0.658-0.752-0.658c-0.47,0-0.847,0.471-0.659,0.941
		c0.095,0.564-1.034,1.692-2.445,2.539c-2.163,1.317-3.01,1.411-3.951,0.47c-1.129-0.94,0.659,2.163-0.282,3.104
		s-0.847,1.035,0.094,0.47c1.035-0.565,1.128-0.282,0.282,1.223c-1.598,3.01-1.223,8.841,0.847,12.227
		c1.035,1.693,1.599,3.575,1.317,4.139c-0.376,0.564-0.283,0.752,0.375,0.375c1.506-0.94,3.292,9.124,2.54,14.579
		c-0.376,2.917-1.035,4.42-1.599,3.951c-0.564-0.282-0.752-0.095-0.375,0.47c1.034,1.787-3.198,8.465-7.712,12.228
		c-9.312,7.618-17.588,8.37-30.755,2.821c-5.737-2.446-17.306-3.01-21.256-1.035c-1.506,0.753-3.575,1.506-4.703,1.693
		c-1.129,0.188-2.258,0.658-2.634,1.034c-0.283,0.377,0.283,0.377,1.316,0c1.786-0.657,1.786-0.563,0.188,1.036
		c-1.506,1.505-1.787,1.599-2.54,0.188c-0.47-0.846-3.104-2.445-5.832-3.667c-4.232-1.787-5.831-1.976-11.756-1.506
		c-3.856,0.376-8.935,1.599-11.757,2.821C-97.808,119.569-105.521,120.979-104.486,119.287z M-104.298,101.04
		c0.847-0.281,1.128-4.514,1.128-16.836V67.839l-6.019-0.376c-4.891-0.188-5.926,0-5.737,1.129
		c0.188,0.752,0.376,8.653,0.376,17.493l0.094,16.178l4.514-0.47C-107.496,101.511-104.956,101.229-104.298,101.04z M-80.22,96.62
		c-0.094-2.54,0.188-4.514,0.47-4.514s1.505,2.163,2.634,4.703c1.881,4.326,2.257,4.703,5.267,4.703c2.821,0,3.386-0.377,3.95-2.54
		c0.282-1.504,1.129-3.292,1.881-4.044c0.659-0.752,1.411-2.257,1.693-3.292c0.188-1.034,0.47,0.752,0.564,4.044l0.094,5.832h4.703
		h4.703l-0.188-16.648l-0.282-16.741h-6.49h-6.489l-1.129,3.292c-0.659,1.788-1.693,4.609-2.352,6.114l-1.128,2.821l-2.069-6.113
		c-2.351-6.772-3.197-7.242-10.91-6.772l-4.703,0.376v16.177c0,8.936,0.282,16.554,0.659,16.93c0.376,0.375,2.633,0.564,4.891,0.375
		l4.232-0.282V96.62z M-23.224,96.808v-4.703h-6.584c-5.173,0-6.583-0.283-6.583-1.411c0-0.941,1.504-1.411,5.832-1.599l5.925-0.282
		l-0.093-4.232l-0.096-4.232l-5.737-0.282c-4.232-0.188-5.832-0.659-5.832-1.599s1.693-1.411,6.396-1.599l6.302-0.282l0.282-3.668
		c0.188-1.975-0.094-4.044-0.564-4.515c-0.847-0.846-23.513-1.316-24.266-0.47c-0.283,0.282-0.565,7.901-0.658,17.024l-0.188,16.555
		h12.979h12.887V96.808z M-7.894,84.863l-0.188-16.741l-4.703-0.282l-4.796-0.282v16.929v17.024h4.985h4.891L-7.894,84.863z"/>
	<path fill="#FFFFFF" d="M-115.114,39.341c-1.411-1.505-4.232-5.267-6.207-8.183c-2.069-2.916-5.173-7.336-6.866-9.688
		c-1.787-2.352-2.821-4.703-2.445-5.079c0.376-0.47,0.094-0.47-0.47-0.094c-0.658,0.376-1.223,0.188-1.223-0.282
		c0-0.564-0.94-1.035-2.069-1.035c-2.445-0.094-5.737-2.257-4.796-3.104c0.282-0.376,0.094-0.659-0.564-0.659
		s-0.94-0.376-0.564-0.846c0.282-0.47,0.094-1.129-0.376-1.505c-1.316-0.752,0.564-5.832,2.445-6.49
		c0.752-0.282,2.728-1.411,4.515-1.129c3.668,0.659,6.113,3.951,6.113,8.183c0,1.975,0.47,3.856,1.035,4.138
		c0.564,0.376,0.752,1.316,0.47,2.069c-0.282,0.752,1.787,1.128,2.728,2.163c2.069,2.257,6.396,3.198,8.841,1.881
		c6.302-3.292,6.02-10.722-0.47-17.306c-2.257-2.351-4.138-5.079-4.138-6.019c0-2.446,3.386-6.208,4.797-5.267
		c0.658,0.376,0.846,0.282,0.564-0.283c-0.377-0.658,0.47-0.94,2.257-0.846c4.232,0.188,6.49,3.386,6.208,8.841
		c-0.188,5.926,1.599,9.875,5.267,11.663c3.386,1.599,8.089,0.846,10.158-1.693c1.787-2.163,1.599-10.251-0.376-12.415
		c-0.847-0.941-1.317-2.069-0.94-2.352c0.282-0.376-0.094-0.659-0.847-0.659c-0.846,0-1.975-1.316-2.539-2.821
		c-0.752-2.257-0.659-2.728,0.188-2.163c0.658,0.376,0.658,0-0.188-0.94c-0.846-1.129-0.94-1.599-0.188-1.599
		c0.659,0,0.941-0.376,0.564-0.94c-0.94-1.505,3.951-4.044,6.584-3.386c1.316,0.376,2.163,1.035,1.881,1.505
		c-0.282,0.47,0.094,0.659,0.847,0.376c2.351-0.846,3.856,3.48,2.54,7.243c-1.411,4.044-1.317,6.395,0.376,9.687
		c0.752,1.411,1.223,2.916,0.94,3.292c-0.188,0.376,0.094,0.752,0.752,0.752c0.659,0.094,2.445,0.564,4.139,1.034
		c2.257,0.753,3.668,0.564,6.113-0.564c2.633-1.411,3.104-2.163,3.386-5.549c0.188-2.069-0.094-4.138-0.658-4.514
		c-0.564-0.282-1.035-0.094-1.035,0.376c0,0.564-0.47,1.035-1.035,1.035s-0.846-0.846-0.564-1.787
		c0.47-1.975-0.94-2.916-4.138-2.916c-1.411,0-1.599-0.47-1.223-2.633c0.47-2.164,0.094-2.822-2.069-3.856l-2.539-1.128l1.975-1.976
		c1.599-1.599,1.693-2.257,0.847-3.762c-0.941-1.504-0.753-2.069,1.128-3.668c1.693-1.411,2.069-2.351,1.599-4.232
		c-0.658-2.352-0.47-2.446,2.163-1.976c2.352,0.47,3.104,0.188,4.045-1.504c0.658-1.129,1.034-2.351,0.94-2.728
		c-0.376-1.316,1.316-0.752,3.198,1.035c1.787,1.693,1.88,1.693,4.326-0.094c1.505-1.034,2.727-1.411,3.104-0.752
		c0.282,0.47,0.376,0.94,0.093,0.94c-0.282,0,0.188,0.847,1.036,1.787c1.128,1.411,1.975,1.599,3.292,0.94
		c0.94-0.47,1.786-0.564,1.881-0.188c0,0.376,0.188,1.223,0.282,1.693c0.188,0.564,0.282,1.411,0.375,1.975
		c0,0.658,1.128,1.411,2.446,1.693c2.069,0.564,2.163,0.847,1.316,2.822c-0.846,1.693-0.658,2.728,0.565,4.608
		c1.505,2.258,1.411,2.445-0.47,3.48c-1.316,0.752-1.881,1.787-1.693,3.574c0.188,1.975-0.188,2.633-1.788,2.821
		c-1.315,0.188-2.351,1.317-3.104,3.292c-0.658,1.881-1.222,2.634-1.692,1.881c-0.471-0.658-1.224-0.846-1.977-0.282
		c-0.94,0.564-1.127,1.693-0.657,4.327c0.375,2.069,0.753,4.138,0.753,4.703c0.188,1.222,0.845,1.411,7.524,1.692
		c2.915,0.188,5.173,0,4.984-0.376c-0.188-0.376,0.47-1.505,1.411-2.633c2.163-2.351,2.54-8.183,0.752-13.074
		c-0.94-2.728-0.94-3.386,0.188-4.044c0.752-0.564,1.035-0.94,0.565-0.94s-0.283-0.659,0.375-1.411
		c0.659-0.846,1.787-1.316,2.54-1.035c0.752,0.283,1.034,0.188,0.752-0.282c-0.282-0.564,0.752-0.847,2.351-0.847
		c3.104,0.094,6.584,3.48,6.584,6.301c0,0.941-1.316,3.386-3.01,5.644C-33.945-2.606-35.92,4.26-34.321,5.2
		c0.47,0.376,0.752,1.316,0.47,2.257c-0.283,1.129,0,1.599,0.752,1.317c0.659-0.282,1.506-0.094,1.881,0.47
		c0.752,1.317,7.712,1.317,8.465,0c0.375-0.564,1.222-0.752,1.976-0.47c0.94,0.376,1.316,0,1.128-1.128
		c-0.188-0.847,0.188-1.505,0.659-1.411c0.564,0.094,0.94-0.753,1.035-1.881c0.563-13.826,1.409-15.707,6.488-15.707
		c4.044,0,6.96,2.916,6.772,6.772c-0.188,1.975-0.658,3.01-1.411,2.822c-0.752-0.094-1.035,0.188-0.752,0.658
		c0.375,0.47-0.188,1.505-1.128,2.164c-6.02,4.42-7.713,12.132-3.48,16.271c2.822,2.821,6.866,3.01,10.064,0.47
		c1.316-0.941,2.54-1.599,2.822-1.411c0.282,0.282,0.47-0.094,0.564-0.658C2.264,12.16,5.085,3.225,6.214,2.096
		c2.446-2.445,6.113-2.352,8.653,0.094c4.139,4.138,1.975,11.004-3.762,12.039c-1.222,0.188-4.326,4.326-9.123,12.415
		c-4.044,6.678-7.336,12.509-7.336,12.885c0,2.446-6.866,3.574-8.935,1.505c-2.069-2.163-15.519-6.96-23.984-8.747
		c-18.999-3.856-52.858-0.94-65.743,5.737c-1.599,0.847-3.48,1.223-4.044,0.847c-0.658-0.376-0.752-0.282-0.376,0.376
		c0.564,0.847-1.975,3.01-3.574,3.01C-112.292,42.257-113.703,40.94-115.114,39.341z"/>
</g>
<text transform="matrix(1 0 0 1 -112.1548 159.7275)"><tspan x="0" y="0" fill="#FFFFFF" font-family="'NotoSansMonoCJKtc-Bold-B5pc-H'" font-size="25.0468">義美食品</tspan><tspan x="10.623" y="30.057" fill="#FFFFFF" font-family="'NotoSansMonoCJKtc-Regular-B5pc-H'" font-size="13.4736">兌換券</tspan><tspan x="51.044" y="30.057" fill="#FFFFFF" font-family="'MStiffHeiHK-UltraBold-B5pc-H'" font-size="25.0468">１</tspan><tspan x="76.091" y="30.057" fill="#FFFFFF" font-family="'NotoSansMonoCJKtc-Regular-B5pc-H'" font-size="13.4736">張</tspan></text>
<text transform="matrix(1 0 0 1 145.8867 157.4824)"><tspan x="0" y="0" fill="#FFFFFF" font-family="'NotoSansMonoCJKtc-Bold-B5pc-H'" font-size="25.0468">抽獎機會</tspan><tspan x="30.834" y="30.057" fill="#FFFFFF" font-family="'MStiffHeiHK-UltraBold-B5pc-H'" font-size="25.0468">１</tspan><tspan x="55.881" y="30.057" fill="#FFFFFF" font-family="'NotoSansMonoCJKtc-Regular-B5pc-H'" font-size="13.4736">次</tspan></text>
<g id="layer1_1_">
	<path fill="#FFFFFF" d="M133.455,120.729c-2.174-0.836-6.018-5.432-6.604-7.773c-0.25-1.002-0.334-13.119-0.25-26.91l0.25-25.073
		h30.506h30.505v30.087v30.087l-26.326,0.168C147.078,121.397,134.457,121.147,133.455,120.729z M144.653,107.692
		c1.756-1.254,1.839-1.756,1.839-14.877c0-14.96-0.334-15.879-4.764-15.377l-2.34,0.25l-0.251,14.626
		c-0.167,13.038-0.084,14.708,1.254,15.628C142.146,109.278,142.396,109.278,144.653,107.692z"/>
	<path fill="#FFFFFF" d="M204.578,120.562c-0.251-0.584-0.335-14.291-0.251-30.337l0.251-29.251h30.505h30.506l0.25,25.491
		c0.085,16.965-0.083,26.244-0.751,27.664c-0.502,1.254-2.007,3.342-3.344,4.596l-2.507,2.424l-27.162,0.25
		C210.512,121.565,204.913,121.397,204.578,120.562z"/>
	<path fill="#FFFFFF" d="M130.195,48.52c-3.427-1.504-6.937-5.767-7.605-9.277c-1.003-5.516,0-15.211,1.838-17.635
		c3.929-5.265,5.267-5.767,18.053-6.017l11.784-0.334l-2.507-1.504c-5.6-3.427-9.361-10.614-9.444-18.303
		c0-6.603,1.504-10.698,6.018-15.545c5.6-6.101,10.781-8.274,18.805-7.772c12.202,0.835,17.552,6.769,24.655,27.413
		c0.334,0.919,1.504,1.17,4.68,1.003c3.761-0.251,4.263-0.585,4.765-2.507c2.59-10.364,9.276-20.393,15.712-23.736
		c10.531-5.349,24.069-0.919,30.505,10.029c2.007,3.427,2.257,4.764,2.257,11.032s-0.25,7.605-2.257,11.032
		c-1.337,2.089-3.677,5.015-5.348,6.352l-3.093,2.507l11.366,0.334c12.286,0.25,13.79,0.752,17.635,6.017
		c1.504,2.006,1.755,3.511,1.755,10.949c0,9.361-0.668,11.199-5.768,14.96c-2.172,1.671-3.343,1.755-30.839,1.755h-28.583
		l-0.251-16.047l-0.167-16.13h-7.939h-7.94l-0.167,16.13l-0.251,16.047l-27.58,0.167C138.804,49.607,132.117,49.355,130.195,48.52z
		 M179.923,3.473c-4.514-14.709-7.772-18.972-14.626-18.972c-6.436,0-10.447,4.262-10.447,11.032c0,6.435,2.09,8.106,16.716,13.289
		C182.18,12.583,182.598,12.332,179.923,3.473z M226.893,6.899c8.19-3.092,10.698-5.85,10.698-11.45
		c0-11.116-14.961-15.127-19.892-5.349c-2.674,5.182-6.937,18.721-6.436,20.393c0.502,1.42,0.753,1.42,4.848,0.167
		C218.535,9.992,223.383,8.32,226.893,6.899z"/>
</g>
<g>
	<path fill="#FFFFFF" stroke="#FFFFFF" stroke-width="3" d="M67.873,104.666h-5.743V91.883H50.686V86.14h11.443V73.963h5.743V86.14
		h11.443v5.743H67.873V104.666z"/>
</g>
</svg>
