<?xml version="1.0" encoding="utf-8"?>
<!-- Generator: Adobe Illustrator 13.0.0, SVG Export Plug-In . SVG Version: 6.00 Build 14948)  -->
<!DOCTYPE svg PUBLIC "-//W3C//DTD SVG 1.0//EN" "http://www.w3.org/TR/2001/REC-SVG-20010904/DTD/svg10.dtd">
<svg version="1.0" id="圖層_1" xmlns="http://www.w3.org/2000/svg" xmlns:xlink="http://www.w3.org/1999/xlink" x="0px" y="0px"
	 width="430px" height="241px" viewBox="-102.183 -5.219 430 241" enable-background="new -102.183 -5.219 430 241"
	 xml:space="preserve">
<g id="layer1">
	<path fill="#FFFFFF" d="M-31.679,129.22c0.257-0.516,0-0.581-0.967-0.259c-2.708,0.838-11.09-3.029-10.509-4.898
		c0.066-0.322-0.192-0.517-0.581-0.386c-0.902,0.192-4.448-4.771-3.997-5.61c0.193-0.258-0.064-0.773-0.516-1.096
		c-0.645-0.388-0.838-1.934-0.838-5.224c0.063-5.48,0.257-6.318,2.447-10.703c1.999-3.998,2.065-5.351,0.388-8.833
		c-0.968-1.999-2.257-3.159-5.48-5.028c-2.32-1.356-4.191-2.515-4.191-2.643c0-0.645,8.188-8.125,8.897-8.125
		c0.516,0,2.192,0.902,3.739,2.063c1.933,1.354,3.546,1.999,4.963,1.935c5.03-0.193,6.836-0.387,6.126-0.838
		c-0.709-0.451,4.707-3.16,6.383-3.16c0.516,0,1.483-0.322,2.128-0.644c6.769-3.611,36.297-3.675,43.067-0.064
		c0.58,0.322,1.289,0.579,1.611,0.579c1.614,0.066,4.319,0.968,4.319,1.483c0,0.323,0.193,0.516,0.518,0.451
		c0.774-0.194,3.353,0.838,3.353,1.417c0,0.259,1.676,0.516,3.675,0.452c3.157,0,3.998-0.258,5.672-1.806
		c1.031-1.032,2.45-1.87,3.03-1.87c1.161,0,8.897,7.027,8.897,8.059c0,0.387-0.903,1.161-1.934,1.741
		c-1.031,0.582-1.869,0.903-1.741,0.645c0.065-0.257-0.128-0.451-0.515-0.451c-0.322,0-0.581,0.324-0.452,0.644
		c0.066,0.387-0.709,1.16-1.675,1.741c-1.482,0.902-2.064,0.968-2.708,0.323c-0.774-0.645,0.452,1.481-0.193,2.128
		c-0.646,0.646-0.581,0.709,0.064,0.322c0.709-0.388,0.772-0.193,0.193,0.838c-1.096,2.063-0.838,6.061,0.58,8.382
		c0.71,1.16,1.098,2.45,0.903,2.837c-0.258,0.386-0.194,0.517,0.257,0.257c1.032-0.643,2.257,6.255,1.741,9.993
		c-0.258,2-0.71,3.031-1.096,2.709c-0.387-0.194-0.518-0.065-0.257,0.322c0.707,1.224-2.192,5.803-5.289,8.382
		c-6.383,5.223-12.056,5.738-21.082,1.935c-3.931-1.677-11.862-2.065-14.57-0.709c-1.032,0.515-2.45,1.031-3.224,1.158
		c-0.774,0.129-1.548,0.451-1.806,0.71c-0.194,0.258,0.194,0.258,0.902,0c1.224-0.45,1.224-0.387,0.129,0.709
		c-1.032,1.032-1.226,1.098-1.741,0.13c-0.322-0.581-2.127-1.677-3.998-2.515c-2.899-1.225-3.997-1.354-8.059-1.031
		c-2.641,0.256-6.124,1.095-8.059,1.933C-27.102,129.412-32.389,130.379-31.679,129.22z M-31.55,116.712
		c0.58-0.193,0.773-3.095,0.773-11.541V93.953l-4.127-0.258c-3.353-0.129-4.063,0-3.931,0.774c0.128,0.515,0.258,5.932,0.258,11.991
		l0.064,11.09l3.094-0.323C-33.742,117.034-32.001,116.841-31.55,116.712z M-15.046,113.682c-0.064-1.741,0.13-3.095,0.324-3.095
		c0.195,0,1.032,1.484,1.806,3.225c1.289,2.964,1.547,3.222,3.61,3.222c1.934,0,2.322-0.258,2.707-1.739
		c0.194-1.034,0.774-2.258,1.29-2.775c0.451-0.515,0.967-1.546,1.16-2.256c0.129-0.708,0.322,0.517,0.387,2.773l0.065,3.997h3.224
		H2.75l-0.129-11.41L2.427,94.147h-4.449h-4.446l-0.773,2.257c-0.452,1.226-1.161,3.159-1.614,4.191l-0.773,1.934l-1.418-4.191
		c-1.611-4.642-2.19-4.963-7.477-4.642l-3.225,0.258v11.089c0,6.127,0.191,11.35,0.452,11.607c0.257,0.257,1.805,0.387,3.352,0.257
		l2.899-0.194V113.682L-15.046,113.682z M24.024,113.812v-3.225H19.51c-3.546,0-4.513-0.192-4.513-0.968
		c0-0.643,1.031-0.965,3.998-1.094l4.063-0.195l-0.065-2.899l-0.066-2.899l-3.933-0.193c-2.899-0.13-3.997-0.451-3.997-1.098
		c0-0.646,1.16-0.966,4.385-1.096l4.319-0.193l0.193-2.515c0.129-1.354-0.064-2.771-0.387-3.096
		c-0.581-0.58-16.118-0.901-16.634-0.321c-0.194,0.192-0.388,5.415-0.451,11.669l-0.128,11.349h8.896h8.833L24.024,113.812
		L24.024,113.812L24.024,113.812z M34.532,105.623l-0.128-11.476l-3.224-0.193l-3.288-0.193v11.604v11.67h3.416h3.354
		L34.532,105.623z"/>
	<path fill="#FFFFFF" d="M-38.965,74.418c-0.967-1.031-2.901-3.61-4.254-5.608c-1.418-1.999-3.546-5.029-4.707-6.641
		c-1.225-1.613-1.932-3.224-1.674-3.482c0.257-0.323,0.064-0.323-0.324-0.065c-0.45,0.258-0.838,0.129-0.838-0.192
		c0-0.387-0.645-0.71-1.418-0.71c-1.674-0.065-3.931-1.547-3.287-2.127c0.193-0.258,0.063-0.452-0.386-0.452
		c-0.451,0-0.645-0.258-0.387-0.58c0.194-0.322,0.064-0.774-0.257-1.032c-0.901-0.516,0.387-3.998,1.676-4.449
		c0.516-0.194,1.87-0.967,3.095-0.774c2.515,0.452,4.19,2.708,4.19,5.609c0,1.354,0.322,2.644,0.71,2.836
		c0.386,0.257,0.516,0.901,0.322,1.417c-0.194,0.516,1.225,0.774,1.87,1.482c1.418,1.547,4.385,2.192,6.063,1.291
		c4.319-2.257,4.126-7.35-0.324-11.864c-1.547-1.612-2.836-3.481-2.836-4.125c0-1.677,2.32-4.256,3.288-3.611
		c0.451,0.258,0.579,0.193,0.387-0.194c-0.259-0.451,0.322-0.644,1.547-0.58c2.899,0.129,4.449,2.321,4.256,6.06
		c-0.13,4.063,1.096,6.77,3.609,7.995c2.322,1.096,5.545,0.58,6.964-1.161c1.225-1.482,1.096-7.026-0.258-8.51
		c-0.581-0.645-0.903-1.418-0.645-1.613c0.193-0.258-0.064-0.452-0.581-0.452c-0.58,0-1.354-0.902-1.741-1.933
		c-0.516-1.547-0.452-1.87,0.129-1.483c0.449,0.258,0.449,0-0.129-0.645c-0.58-0.773-0.643-1.096-0.128-1.096
		c0.449,0,0.643-0.257,0.385-0.644c-0.643-1.031,2.709-2.772,4.514-2.321c0.902,0.257,1.482,0.709,1.289,1.032
		c-0.191,0.322,0.066,0.452,0.583,0.258c1.611-0.581,2.642,2.385,1.741,4.965c-0.967,2.772-0.903,4.383,0.257,6.64
		c0.516,0.967,0.839,1.999,0.643,2.257c-0.128,0.258,0.065,0.516,0.515,0.516c0.452,0.064,1.677,0.386,2.839,0.708
		c1.547,0.516,2.515,0.387,4.189-0.387c1.807-0.966,2.128-1.482,2.323-3.803c0.129-1.418-0.066-2.837-0.451-3.095
		c-0.387-0.193-0.709-0.064-0.709,0.258c0,0.387-0.322,0.71-0.709,0.71c-0.386,0-0.58-0.58-0.386-1.226
		c0.322-1.354-0.645-1.999-2.838-1.999c-0.967,0-1.096-0.322-0.838-1.805c0.322-1.483,0.064-1.935-1.418-2.644l-1.741-0.772
		l1.356-1.355c1.096-1.096,1.158-1.547,0.58-2.579c-0.645-1.031-0.516-1.418,0.773-2.515c1.16-0.967,1.418-1.612,1.097-2.901
		c-0.45-1.612-0.323-1.676,1.481-1.354c1.614,0.322,2.128,0.129,2.774-1.031c0.45-0.774,0.707-1.612,0.643-1.87
		c-0.257-0.902,0.902-0.515,2.192,0.709c1.225,1.161,1.289,1.161,2.965-0.064c1.032-0.709,1.869-0.967,2.128-0.515
		c0.193,0.322,0.257,0.644,0.063,0.644c-0.191,0,0.129,0.581,0.71,1.225c0.773,0.968,1.355,1.096,2.257,0.645
		c0.645-0.322,1.224-0.387,1.289-0.129c0,0.258,0.129,0.838,0.193,1.161c0.129,0.386,0.193,0.967,0.257,1.354
		c0,0.451,0.773,0.967,1.677,1.16c1.417,0.387,1.483,0.581,0.9,1.935c-0.58,1.16-0.449,1.87,0.387,3.159
		c1.032,1.547,0.968,1.676-0.321,2.385c-0.902,0.516-1.29,1.225-1.161,2.45c0.129,1.354-0.129,1.805-1.226,1.933
		c-0.899,0.129-1.611,0.903-2.127,2.257c-0.452,1.289-0.839,1.806-1.16,1.289c-0.323-0.451-0.838-0.58-1.355-0.193
		c-0.645,0.386-0.772,1.161-0.45,2.966c0.257,1.418,0.516,2.837,0.516,3.224c0.129,0.837,0.579,0.967,5.156,1.16
		c1.998,0.128,3.548,0,3.417-0.258c-0.128-0.258,0.322-1.032,0.967-1.805c1.482-1.612,1.741-5.61,0.516-8.962
		c-0.645-1.87-0.645-2.321,0.129-2.771c0.516-0.387,0.708-0.645,0.386-0.645s-0.194-0.452,0.257-0.967
		c0.452-0.58,1.226-0.902,1.741-0.709c0.516,0.193,0.709,0.129,0.516-0.194c-0.193-0.386,0.516-0.58,1.612-0.58
		c2.128,0.064,4.514,2.385,4.514,4.319c0,0.645-0.902,2.321-2.065,3.869c-2.064,2.838-3.416,7.545-2.322,8.189
		c0.322,0.258,0.515,0.902,0.322,1.547c-0.193,0.774,0,1.096,0.516,0.903c0.452-0.193,1.033-0.064,1.29,0.323
		c0.517,0.903,5.288,0.903,5.804,0c0.257-0.387,0.838-0.516,1.354-0.323c0.645,0.258,0.902,0,0.773-0.773
		c-0.128-0.581,0.129-1.032,0.452-0.967c0.386,0.065,0.644-0.516,0.71-1.289c0.386-9.478,0.966-10.767,4.446-10.767
		c2.773,0,4.772,1.999,4.642,4.642c-0.129,1.354-0.451,2.063-0.967,1.935c-0.515-0.064-0.709,0.129-0.515,0.452
		c0.257,0.322-0.129,1.031-0.773,1.483c-4.126,3.029-5.287,8.315-2.385,11.153c1.933,1.934,4.705,2.063,6.897,0.323
		c0.903-0.645,1.741-1.097,1.935-0.968c0.193,0.193,0.322-0.064,0.385-0.451c0.192-2.45,2.128-8.574,2.9-9.348
		c1.675-1.676,4.19-1.612,5.93,0.064c2.838,2.837,1.355,7.543-2.58,8.253c-0.837,0.128-2.965,2.966-6.253,8.511
		c-2.772,4.578-5.029,8.574-5.029,8.832c0,1.677-4.706,2.45-6.124,1.032c-1.419-1.483-10.64-4.771-16.441-5.996
		C0.68,66.941-22.528,68.94-31.362,73.515c-1.096,0.582-2.384,0.839-2.772,0.582c-0.451-0.258-0.515-0.193-0.257,0.258
		c0.387,0.581-1.354,2.063-2.45,2.063C-37.03,76.417-37.997,75.514-38.965,74.418z"/>
</g>
<g>
	<g enable-background="new    ">
		<path fill="#FFFFFF" d="M-27.743,154.797c-0.707,0.934-1.644,1.758-2.669,2.486c0.548,0.435,1.119,0.663,1.709,0.663
			c0.549,0,0.684-0.413,0.798-1.689c0.525,0.479,1.37,0.869,1.984,1.05c-0.364,2.554-1.118,3.099-2.918,3.099
			c-1.504,0-2.804-0.638-3.898-1.755c-1.459,0.73-3.053,1.323-4.628,1.755c-0.252-0.546-0.89-1.617-1.323-2.143
			c1.575-0.34,3.169-0.82,4.583-1.435c-0.456-0.799-0.843-1.71-1.14-2.714h-4.446v0.869l3.42-0.185l-0.022,1.824l-3.396,0.273v1.162
			c0,1.211-0.251,1.732-1.095,2.03c-0.891,0.322-2.051,0.344-3.739,0.344c-0.136-0.638-0.456-1.483-0.775-2.074
			c0.981,0.066,2.234,0.046,2.576,0.022c0.342,0,0.457-0.092,0.457-0.391v-0.91c-1.596,0.135-3.102,0.227-4.379,0.32l-0.205-2.074
			c1.253-0.048,2.85-0.114,4.583-0.208v-1.004h-4.515v-1.981h4.515v-0.914c-1.209,0.114-2.44,0.182-3.557,0.208
			c-0.091-0.458-0.342-1.164-0.571-1.62c2.782-0.159,6.019-0.478,8.026-0.933h-8.369v-2.054h8.71v-0.843h-6.476v-1.872h6.476v-0.818
			h-7.684v-2.005h4.035c-0.249-0.48-0.546-0.96-0.865-1.37l2.371-0.751c0.569,0.593,1.14,1.482,1.391,2.121h4.583
			c0.388-0.686,0.797-1.551,1.004-2.188l3.008,0.568c-0.409,0.593-0.818,1.163-1.185,1.62h3.944v2.005h-7.82v0.818h6.612v1.872
			h-6.612v0.843h8.823v2.054h-4.515c1.254,0.478,2.781,1.275,3.602,1.914l-1.208,1.347h2.235v1.983h-3.422L-27.743,154.797z
			 M-35.745,152.13c-0.183-0.936-0.297-1.938-0.365-2.966h2.598c0.045,1.049,0.181,2.03,0.387,2.966h3.763
			c-0.89-0.639-2.19-1.37-3.33-1.777l1.415-1.482h-6.749l1.481,1.526c-0.934,0.207-2.006,0.39-3.147,0.549v1.186L-35.745,152.13
			L-35.745,152.13z M-32.508,154.111c0.206,0.527,0.434,1.027,0.707,1.462c0.639-0.435,1.208-0.935,1.666-1.462H-32.508z"/>
		<path fill="#FFFFFF" d="M-11.528,154.797c2.736,0.957,6.338,2.348,8.231,3.353l-1.277,2.325c-2.004-1.14-6.177-2.896-9.119-3.966
			l1.024-1.71h-0.82c-1.093,2.805-3.533,4.605-9.619,5.609c-0.183-0.73-0.821-1.869-1.347-2.44c4.583-0.615,6.728-1.642,7.797-3.169
			h-6.794v-2.301h7.682c0.069-0.364,0.138-0.778,0.183-1.188h-8.39v-2.348h8.755v-1.206h-6.749v-2.281h6.749v-1.161h-8.048v-2.395
			h4.332c-0.341-0.686-0.821-1.414-1.276-2.006l2.417-0.96c0.706,0.799,1.414,1.895,1.709,2.669l-0.662,0.297h5.018
			c0.569-0.89,1.253-2.073,1.617-2.966l2.917,0.753c-0.5,0.799-1.026,1.551-1.527,2.213h4.376v2.395h-8.069v1.161h6.977v2.281
			h-6.977v1.206h9.073v2.348h-9.37c-0.045,0.41-0.114,0.8-0.183,1.188h8.891v2.301L-11.528,154.797L-11.528,154.797z"/>
		<path fill="#FFFFFF" d="M10.914,140.046c-0.161,0.182-0.321,0.342-0.479,0.525c2.325,1.778,6.155,3.42,9.507,4.217
			c-0.618,0.549-1.391,1.619-1.758,2.257c-0.818-0.249-1.617-0.549-2.463-0.89v7.408H4.916v3.764l5.245-0.57
			c-0.069,0.685-0.069,1.709-0.023,2.257c-6.109,0.819-7.112,1.004-7.796,1.322c-0.182-0.57-0.776-1.528-1.163-1.938
			c0.479-0.296,1.049-0.91,1.049-1.938v-10.283c-0.707,0.296-1.39,0.57-2.121,0.821c-0.342-0.638-1.049-1.551-1.664-2.166
			c3.875-1.118,7.957-3.261,10.053-5.975L10.914,140.046z M15.496,146.067c-1.14-0.504-2.301-1.074-3.395-1.713v1.095H5.99v-1.209
			c-1.12,0.662-2.304,1.278-3.489,1.827H15.496z M12.965,147.981H4.918v0.957h8.047V147.981z M12.965,151.629v-0.96H4.918v0.96
			H12.965z M10.936,143.646c-0.729-0.475-1.459-1.003-2.097-1.502c-0.615,0.523-1.276,1.027-1.961,1.502H10.936z M18.574,154.569
			c-1.073,0.707-2.302,1.437-3.488,2.074c1.186,0.662,2.233,1.323,3.01,1.892l-1.917,1.802c-1.8-1.413-5.585-3.624-8.457-5.015
			l1.756-1.573c1.026,0.476,2.212,1.048,3.396,1.662c1.347-0.729,2.759-1.688,3.738-2.485L18.574,154.569z"/>
		<path fill="#FFFFFF" d="M22.069,150.169h8.687v10.147h-2.714v-1.025h-3.395v1.139H22.07v-10.261H22.069z M24.646,152.767v3.924
			h3.396v-3.924H24.646z M38.575,148.277h-13.36v-8.255h13.36V148.277z M35.816,142.622h-7.979v3.076h7.979V142.622z
			 M41.654,150.169v10.168h-2.736v-1.046h-3.625v1.139h-2.598v-10.261H41.654L41.654,150.169z M38.918,156.69v-3.924h-3.625v3.924
			H38.918z"/>
	</g>
	<g enable-background="new    ">
		<path fill="#FFFFFF" d="M-33.115,172.736c-0.957,1.507-2.528,2.783-4.012,3.605c-0.17-0.184-0.54-0.54-0.783-0.688
			c1.558-0.724,3.03-1.901,3.85-3.24L-33.115,172.736z M-28.28,182.45c0.466,0,0.55-0.197,0.588-1.447
			c0.208,0.136,0.576,0.271,0.835,0.331c-0.111,1.546-0.381,1.95-1.35,1.95h-1.998c-1.155,0-1.448-0.269-1.448-1.227v-2.883h-1.203
			c-0.283,2.231-1.044,3.643-4.023,4.38c-0.073-0.233-0.306-0.588-0.49-0.759c2.711-0.614,3.349-1.768,3.581-3.621h-1.617v-3.938
			h6.501v3.938h-1.852v2.87c0,0.344,0.098,0.404,0.639,0.404L-28.28,182.45L-28.28,182.45z M-34.465,178.34h4.575v-2.268h-4.575
			V178.34z M-27.411,176.389c-0.784-0.978-2.502-2.476-3.925-3.507l0.749-0.454c1.41,0.981,3.139,2.43,4.011,3.424L-27.411,176.389z
			"/>
		<path fill="#FFFFFF" d="M-23.165,178.819v3.495c0,0.516-0.112,0.763-0.403,0.922c-0.284,0.16-0.749,0.198-1.473,0.198
			c-0.037-0.259-0.159-0.639-0.269-0.91c0.49,0.013,0.931,0.013,1.066,0.013c0.159,0,0.208-0.047,0.208-0.207v-3.191
			c-0.477,0.172-0.919,0.332-1.336,0.469l-0.233-0.872c0.441-0.135,0.982-0.32,1.569-0.514v-2.651h-1.447v-0.846h1.447v-2.451h0.872
			v2.451h1.24v0.846h-1.241v2.357l1.154-0.405l0.148,0.821L-23.165,178.819z M-17.989,180.537c-0.478,1.461-1.521,2.417-3.901,2.942
			c-0.074-0.208-0.294-0.525-0.455-0.709c2.062-0.417,2.994-1.128,3.448-2.233h-3.093v-0.748h1.031v-3.803
			c-0.11,0.109-0.235,0.221-0.345,0.319c-0.11-0.171-0.381-0.467-0.551-0.589c1.19-1.007,1.963-2.368,2.368-3.447l0.849,0.124
			c-0.099,0.27-0.222,0.526-0.358,0.81h1.879l0.134-0.036l0.541,0.355c-0.247,0.542-0.601,1.143-0.945,1.646h2.27v4.625h0.783v0.747
			h-3.655V180.537z M-19.399,173.95c-0.235,0.415-0.516,0.82-0.822,1.214h1.95c0.247-0.332,0.515-0.799,0.724-1.214H-19.399z
			 M-18.676,179.787c0.085-0.367,0.147-0.772,0.184-1.214h0.884c-0.037,0.431-0.098,0.847-0.171,1.214h1.878v-3.862h-2.134
			l0.576,0.147c-0.088,0.209-0.196,0.431-0.32,0.636c0.674,0.404,1.436,0.947,1.829,1.339l-0.441,0.503
			c-0.368-0.38-1.067-0.908-1.717-1.312c-0.394,0.541-0.859,1.006-1.324,1.362c-0.125-0.125-0.432-0.345-0.589-0.431
			c0.785-0.541,1.46-1.337,1.84-2.245h-2.012v3.862H-18.676z M-17.155,180.695c0.958,0.664,2.246,1.632,2.896,2.221l-0.588,0.576
			c-0.638-0.601-1.903-1.619-2.859-2.319L-17.155,180.695z"/>
		<path fill="#FFFFFF" d="M-5.34,177.3c0.834,0.918,2.11,1.668,3.459,2.023c-0.208,0.17-0.455,0.526-0.587,0.76
			c-0.675-0.207-1.326-0.539-1.926-0.918v0.01c-0.16,2.478-0.332,3.448-0.675,3.804c-0.22,0.246-0.455,0.32-0.811,0.357
			c-0.342,0.023-0.981,0.023-1.643-0.024c-0.014-0.255-0.125-0.612-0.269-0.857c0.65,0.073,1.274,0.073,1.507,0.073
			c0.221,0,0.342-0.025,0.454-0.124c0.221-0.219,0.368-0.969,0.504-2.796h-2.972c-0.33,1.827-1.164,3.139-3.754,3.853
			c-0.096-0.235-0.33-0.591-0.528-0.774c2.319-0.563,3.044-1.62,3.351-3.08h-1.901v-0.439c-0.504,0.328-1.032,0.637-1.62,0.907
			c-0.085-0.223-0.368-0.579-0.576-0.749c1.226-0.526,2.22-1.238,2.994-2.024h-2.639v-0.821h3.35
			c0.32-0.403,0.577-0.821,0.811-1.251h-3.412v-0.812h2.037c-0.197-0.418-0.614-1.055-0.994-1.509l0.724-0.368
			c0.405,0.47,0.859,1.105,1.068,1.536l-0.663,0.342h1.606c0.296-0.724,0.479-1.471,0.579-2.183l0.957,0.097
			c-0.122,0.699-0.306,1.401-0.552,2.086H-6c0.403-0.515,0.908-1.3,1.178-1.839l0.834,0.282c-0.332,0.539-0.724,1.103-1.104,1.557
			h1.974v0.811h-4.687c-0.208,0.433-0.43,0.848-0.71,1.252h6.232v0.82h-3.055l0,0H-5.34z M-4.935,178.771
			c-0.564-0.431-1.055-0.93-1.435-1.471h-2.748c-0.432,0.526-0.922,1.018-1.498,1.471H-4.935z"/>
	</g>
	<g enable-background="new    ">
		<path fill="#FFFFFF" d="M7.881,186.539v-15.114H4.916v-2.257h7.523v17.371H7.881L7.881,186.539z"/>
	</g>
	<g enable-background="new    ">
		<path fill="#FFFFFF" d="M25.574,178.28c0,0,0,0.27-0.012,0.393c-0.147,2.896-0.307,4.002-0.639,4.381
			c-0.209,0.246-0.429,0.331-0.785,0.367c-0.307,0.024-0.895,0.024-1.484-0.015c-0.025-0.282-0.124-0.634-0.294-0.894
			c0.615,0.061,1.192,0.074,1.423,0.074c0.195,0,0.318-0.023,0.429-0.148c0.222-0.221,0.343-1.103,0.479-3.348h-2.479
			c0.087-0.932,0.135-2.43,0.135-3.557h2.355v-1.88h-2.614v-0.821h3.459v3.522h-2.404c-0.013,0.649-0.038,1.323-0.061,1.913
			L25.574,178.28z M32.566,179.58c-0.55,0.467-1.201,0.957-1.743,1.325c0.675,0.711,1.473,1.287,2.307,1.655
			c-0.209,0.173-0.492,0.489-0.625,0.724c-1.706-0.871-3.189-2.637-4.038-4.601h-1.005v3.569l1.988-0.661
			c0,0.219,0.037,0.562,0.073,0.734c-2.33,0.835-2.673,1.006-2.895,1.165c-0.048-0.209-0.257-0.588-0.379-0.772
			c0.158-0.099,0.355-0.27,0.355-0.738v-3.298h-0.737v-0.8h1.005v-5.054h5.779v0.748h-4.895v0.958h4.44v0.687h-4.44v0.957h4.44v0.7
			h-4.44v1.004h5.127v0.8h-3.594c0.294,0.589,0.649,1.164,1.091,1.692c0.514-0.406,1.129-0.959,1.496-1.362L32.566,179.58z"/>
	</g>
</g>
<g>
	<g enable-background="new    ">
		<path fill="#FFFFFF" d="M157.995,151.422l-2.46,0.685v5.588c0,1.297-0.229,1.959-0.981,2.348c-0.753,0.434-1.846,0.501-3.42,0.501
			c-0.067-0.706-0.433-1.755-0.752-2.462c0.89,0.045,1.802,0.045,2.099,0.045c0.32,0,0.434-0.112,0.434-0.432v-4.856
			c-0.867,0.229-1.663,0.41-2.416,0.615l-0.685-2.575c0.89-0.183,1.96-0.435,3.1-0.707v-4.104h-2.735v-2.53h2.735v-4.265h2.623
			v4.265h2.188v2.53h-2.188v3.442l2.119-0.549L157.995,151.422z M170.901,144.311v16.027h-2.69v-1.482h-7.365v1.641h-2.6v-16.183
			h4.925v-5.038h2.553v5.038L170.901,144.311L170.901,144.311z M160.846,146.887v3.307h2.325v-3.307H160.846z M160.846,156.255
			h2.325v-3.533h-2.325V156.255z M165.724,146.887v3.307h2.486v-3.307H165.724z M168.211,156.255v-3.533h-2.486v3.533H168.211z"/>
		<path fill="#FFFFFF" d="M187.412,155.915c2.439,0.819,5.198,1.823,6.818,2.529l-1.234,2.119c-1.981-0.978-6.041-2.529-8.89-3.51
			l0.707-1.139h-0.687c-1.071,1.914-3.737,3.783-9.804,4.763c-0.32-0.636-1.004-1.596-1.504-2.187
			c4.104-0.615,6.429-1.552,7.727-2.576h-7.613v-2.234h9.142c0.022-0.207,0.046-0.411,0.046-0.614v-1.506h2.693v1.597
			c0,0.181,0,0.343-0.023,0.523h3.965c-0.478-0.411-1.026-0.819-1.503-1.141l0.818-0.776h-0.864
			c-0.093-0.614-0.389-1.367-0.663-1.96c0.729,0.046,1.574,0.046,1.825,0.046c0.249-0.021,0.318-0.091,0.318-0.319v-1.32h-3.782
			c0.591,0.454,1.186,0.933,1.502,1.367l-1.776,1.347c-0.435-0.593-1.391-1.461-2.233-2.009l0.931-0.705h-2.256v-1.757h0.889
			c-0.228-0.455-0.591-0.957-0.889-1.274c2.052-0.207,4.012-0.616,5.7-1.278c-0.502-0.567-1.207-1.23-1.893-1.776
			c-0.729,0.274-1.572,0.547-2.463,0.799c-0.272-0.48-0.889-1.209-1.321-1.528c2.737-0.549,4.788-1.345,5.974-2.233l2.234,0.454
			c-0.318,0.274-0.639,0.525-0.979,0.775h3.167l0.436-0.067l1.391,0.706c-1.007,1.826-2.601,3.079-4.537,3.968h2.483v1.459h2.577
			v1.757h-2.577v1.413c0,1.071-0.207,1.549-0.96,1.868c-0.319,0.138-0.729,0.209-1.205,0.252c0.684,0.455,1.367,0.98,1.776,1.414
			l-0.523,0.523h3.784v2.233h-6.726v-0.002H187.412z M176.72,148.096c0,1.071-0.32,3.305-1.824,4.559
			c-0.456-0.362-1.438-0.911-2.051-1.16c1.231-0.96,1.48-2.556,1.504-3.397h-1.276v-2.099h4.854v-1.254h-3.964v-4.924h2.255v2.871
			h1.712v-3.395h2.46v12.995h-2.46v-4.195L176.72,148.096L176.72,148.096L176.72,148.096z M185.225,144.173
			c-1.118,0.114-2.167,0.229-3.192,0.343l-0.229-1.367c0.958-0.067,2.075-0.161,3.397-0.25L185.225,144.173z M188.69,146.453v-1.415
			c-1.436,0.639-3.032,1.097-4.741,1.415H188.69z M186.957,141.849c0.502,0.41,1.004,0.888,1.437,1.323
			c0.661-0.39,1.254-0.82,1.732-1.323H186.957z"/>
		<path fill="#FFFFFF" d="M201.214,152.153c-0.184-0.548-0.549-1.39-0.936-2.213v10.603h-2.325v-8.8
			c-0.456,1.596-0.981,3.033-1.551,4.081c-0.205-0.777-0.705-1.984-1.05-2.69c1.05-1.619,1.961-4.561,2.463-7.137h-1.869v-2.509
			h2.007v-4.239h2.325v4.239h1.528v2.509h-1.528v1.004c0.503,0.705,1.802,2.805,2.098,3.352L201.214,152.153z M215.645,153.727
			c-0.662,1.254-1.505,2.37-2.509,3.351c0.435,0.479,0.891,0.755,1.414,0.821c0.435,0.048,0.706-0.774,0.864-2.373
			c0.389,0.525,1.277,1.188,1.712,1.438c-0.593,2.826-1.505,3.624-2.483,3.557c-1.347-0.114-2.463-0.799-3.351-1.938
			c-1.074,0.752-2.303,1.391-3.604,1.891c-0.296-0.477-0.933-1.3-1.389-1.73c1.458-0.503,2.781-1.21,3.921-2.052
			c-0.477-1.051-0.845-2.258-1.163-3.648h-3.1c-0.023,0.159-0.023,0.341-0.047,0.502c0.935,0.751,2.235,1.8,2.896,2.462
			l-1.642,1.596c-0.389-0.457-1.047-1.047-1.71-1.642c-0.523,1.618-1.46,3.26-3.1,4.56c-0.342-0.433-1.3-1.276-1.802-1.55
			c2.416-1.778,3.032-4.105,3.1-5.928h-1.346v-2.074h6.359c-0.386-2.327-0.616-5.015-0.774-7.981
			c-0.891,1.688-2.007,3.397-3.1,4.742l1.276-0.136c-0.114-0.343-0.207-0.706-0.298-1.025l1.575-0.411
			c0.362,1.074,0.751,2.441,0.911,3.283l-1.688,0.501c-0.021-0.205-0.067-0.477-0.135-0.776c-2.736,0.413-3.26,0.571-3.581,0.707
			c-0.113-0.364-0.409-1.345-0.637-1.846c0.388-0.093,0.751-0.456,1.14-1.004c0.206-0.249,0.615-0.865,1.095-1.663
			c-1.209,0.16-1.598,0.272-1.825,0.387c-0.114-0.41-0.433-1.323-0.637-1.823c0.295-0.094,0.569-0.366,0.82-0.82
			c0.249-0.411,1.093-2.052,1.527-3.65l1.938,0.504c-0.523,1.323-1.254,2.713-1.961,3.809l1.028-0.093
			c0.228-0.455,0.455-0.935,0.637-1.415l1.894,0.639c-0.047-1.093-0.093-2.278-0.138-3.467h2.235
			c0.091,4.469,0.388,8.438,0.958,11.537h2.097c-0.388-0.341-0.82-0.685-1.186-0.98l1.025-0.843
			c-1.069,0.181-1.413,0.295-1.618,0.409c-0.091-0.388-0.409-1.367-0.616-1.869c0.365-0.114,0.707-0.479,1.118-1.049
			c0.207-0.228,0.616-0.844,1.049-1.618c-1.186,0.16-1.551,0.274-1.778,0.388c-0.135-0.409-0.433-1.299-0.661-1.823
			c0.296-0.068,0.547-0.363,0.798-0.775c0.229-0.39,0.979-1.939,1.367-3.443l1.939,0.524c-0.458,1.232-1.118,2.484-1.779,3.512
			l1.025-0.069c0.207-0.455,0.41-0.958,0.594-1.415l1.96,0.637c-0.847,1.714-1.96,3.468-3.032,4.836l1.253-0.136
			c-0.113-0.319-0.206-0.662-0.32-0.956l1.551-0.437c0.389,1.073,0.865,2.485,1.049,3.307l-1.62,0.571
			c-0.045-0.275-0.112-0.593-0.203-0.936c-0.571,0.094-1.051,0.161-1.437,0.229c0.616,0.456,1.346,1.004,1.732,1.389l-0.593,0.549
			h1.822v2.074h-2.644L215.645,153.727z M211.358,153.043c0.184,0.752,0.388,1.391,0.616,1.984c0.523-0.617,0.979-1.277,1.348-1.984
			H211.358z"/>
		<path fill="#FFFFFF" d="M231.064,139.909c-0.115,0.137-0.229,0.297-0.344,0.435c2.1,1.824,5.837,3.396,9.464,4.104
			c-0.571,0.478-1.348,1.438-1.711,2.075c-0.456-0.114-0.935-0.276-1.416-0.412v5.884h-15.843v-5.748
			c-0.479,0.162-0.956,0.32-1.414,0.435c-0.274-0.502-1.005-1.596-1.46-2.098c4.194-0.979,8.252-2.871,10.329-5.518L231.064,139.909
			z M236.239,145.815c-1.072-0.388-2.099-0.866-3.101-1.39v0.591h-8.004v-0.454c-0.889,0.454-1.8,0.889-2.756,1.253H236.239z
			 M222.49,152.747h13.405v7.705h-2.781v-0.547h-7.957v0.614h-2.667V152.747z M225.067,150.353
			c-0.114-0.707-0.409-1.642-0.776-2.371l1.756-0.503h-2.577v2.871L225.067,150.353L225.067,150.353z M225.157,154.524v0.91h7.957
			v-0.91H225.157z M233.115,158.126v-0.911h-7.957v0.911H233.115z M227.939,147.479h-1.779c0.412,0.774,0.777,1.755,0.914,2.417
			l-1.46,0.456h2.325V147.479L227.939,147.479z M231.222,143.263c-0.684-0.479-1.346-0.98-1.915-1.481
			c-0.591,0.501-1.256,1.003-1.938,1.481H231.222z M230.129,147.479v2.873h2.118l-1.367-0.391c0.319-0.685,0.686-1.73,0.891-2.483
			L230.129,147.479L230.129,147.479z M234.643,147.479h-2.372l1.776,0.435c-0.453,0.91-0.888,1.801-1.253,2.438h1.849V147.479
			L234.643,147.479z"/>
	</g>
	<g enable-background="new    ">
		<path fill="#FFFFFF" d="M186.778,186.654v-15.117h-2.965v-2.255h7.525v17.371L186.778,186.654L186.778,186.654z"/>
	</g>
	<g enable-background="new    ">
		<path fill="#FFFFFF" d="M204.692,180.224h-3.852v-0.896h3.852V180.224z M204.323,175.18h-3.214v-0.882h3.214V175.18z
			 M207.955,176.836c0,0.185,0,0.367-0.015,0.541c0.565,2.588,1.779,4.551,4.012,5.325c-0.184,0.185-0.467,0.54-0.602,0.796
			c-1.84-0.748-2.979-2.207-3.678-4.182c-0.431,1.496-1.438,3.065-3.779,4.294c-0.148-0.21-0.478-0.552-0.688-0.712
			c3.521-1.777,3.792-4.332,3.792-6.085v-0.933h0.958V176.836z M205.993,175.364c-0.381,0.993-0.798,1.878-1.29,2.576
			c-0.196-0.16-0.649-0.405-0.895-0.517c0.933-1.188,1.608-3.102,1.976-5.04l0.981,0.184c-0.123,0.65-0.294,1.289-0.479,1.901h4.443
			l0.172-0.049l0.673,0.356c-0.319,1.189-0.859,2.478-1.287,3.325c-0.196-0.112-0.54-0.296-0.76-0.395
			c0.293-0.577,0.66-1.498,0.907-2.343H205.993z"/>
	</g>
</g>
<g id="layer1_1_">
	<path fill="#FFFFFF" d="M152.136,130.208c-1.491-0.573-4.126-3.724-4.527-5.326c-0.172-0.688-0.229-8.994-0.172-18.447
		l0.172-17.186h20.91h20.912v20.624v20.624l-18.046,0.115C161.474,130.666,152.823,130.494,152.136,130.208z M159.812,121.271
		c1.205-0.86,1.262-1.204,1.262-10.199c0-10.253-0.229-10.884-3.267-10.54l-1.604,0.171l-0.172,10.026
		c-0.114,8.937-0.057,10.082,0.86,10.713C158.094,122.358,158.265,122.358,159.812,121.271z"/>
	<path fill="#FFFFFF" d="M200.888,130.094c-0.172-0.4-0.229-9.795-0.172-20.795l0.172-20.05H221.8h20.911l0.172,17.474
		c0.059,11.63-0.058,17.99-0.515,18.963c-0.344,0.859-1.378,2.292-2.292,3.151l-1.721,1.661l-18.618,0.171
		C204.957,130.781,201.118,130.666,200.888,130.094z"/>
	<path fill="#FFFFFF" d="M149.901,80.71c-2.349-1.031-4.754-3.954-5.211-6.359c-0.688-3.782,0-10.427,1.26-12.089
		c2.693-3.609,3.61-3.953,12.375-4.125l8.078-0.229l-1.718-1.031c-3.84-2.349-6.417-7.275-6.475-12.546
		c0-4.526,1.031-7.333,4.127-10.656c3.838-4.182,7.388-5.672,12.89-5.328c8.364,0.572,12.031,4.64,16.9,18.791
		c0.23,0.63,1.031,0.802,3.209,0.688c2.577-0.172,2.922-0.401,3.267-1.719c1.774-7.104,6.358-13.979,10.77-16.27
		c7.219-3.667,16.498-0.63,20.913,6.875c1.374,2.349,1.546,3.266,1.546,7.563c0,4.296-0.172,5.213-1.546,7.562
		c-0.919,1.432-2.523,3.438-3.669,4.354l-2.12,1.719l7.792,0.229c8.422,0.171,9.452,0.516,12.088,4.125
		c1.031,1.375,1.203,2.407,1.203,7.505c0,6.416-0.458,7.676-3.955,10.254c-1.488,1.146-2.292,1.203-21.138,1.203h-19.594l-0.173-11
		l-0.114-11.057h-5.441h-5.443l-0.114,11.057l-0.173,11l-18.903,0.114C155.803,81.456,151.219,81.283,149.901,80.71z M183.99,49.832
		c-3.096-10.083-5.328-13.005-10.026-13.005c-4.413,0-7.162,2.922-7.162,7.563c0,4.411,1.433,5.557,11.459,9.109
		C185.537,56.076,185.823,55.904,183.99,49.832z M216.186,52.18c5.614-2.12,7.335-4.01,7.335-7.849
		c0-7.62-10.257-10.369-13.638-3.667c-1.833,3.552-4.756,12.833-4.412,13.979c0.343,0.974,0.517,0.974,3.322,0.114
		C210.457,54.3,213.781,53.154,216.186,52.18z"/>
</g>
<g>
	<path fill="#FFFFFF" stroke="#FFFFFF" stroke-width="3" d="M100.768,119.197h-3.936v-8.763h-7.845v-3.935h7.844v-8.348h3.937v8.348
		h7.843v3.935h-7.843V119.197L100.768,119.197z"/>
</g>
</svg>
